<?xml version="1.0" encoding="UTF-8"?> <svg xmlns="http://www.w3.org/2000/svg" xmlns:xlink="http://www.w3.org/1999/xlink" xmlns:xodm="http://www.corel.com/coreldraw/odm/2003" xml:space="preserve" width="557.829mm" height="186.986mm" version="1.1" style="shape-rendering:geometricPrecision; text-rendering:geometricPrecision; image-rendering:optimizeQuality; fill-rule:evenodd; clip-rule:evenodd" viewBox="0 0 55782.88 18698.59"> <defs> <style type="text/css"> .fil2 {fill:none} .fil1 {fill:#FEFEFE} .fil0 {fill:#2B2A29} .fil3 {fill:#EF7F1A} </style> <clipPath id="id0"> <path d="M6564.65 10420.48l1795.49 -97.25c61.66,592.43 185.92,992.61 370.5,1198.21 298.13,338.26 820.95,506.26 1564.38,506.26 619.14,0 1059.53,-114.92 1321.24,-342.66 261.58,-229.9 383.07,-506.27 362.33,-829.04 -18.05,-280.77 -146.95,-519.55 -386.56,-714.09 -167.61,-141.47 -619.58,-373.6 -1353.46,-691.99 -734.02,-320.56 -1271.67,-585.82 -1613.23,-800.3 -341.58,-214.41 -618.58,-490.78 -828.98,-831.22 -210.59,-342.66 -330.41,-740.61 -359.83,-1198.25 -51.45,-800.3 186.71,-1461.36 714.06,-1989.72 527.48,-526.17 1322.52,-789.25 2385.14,-789.25 1079.74,0 1932.08,260.88 2556.9,782.64 625,523.93 995.24,1218.12 1111.09,2086.98l-1809.22 84.01c-76.25,-453.21 -257.25,-802.53 -544.83,-1043.51 -287.55,-240.96 -696.02,-362.56 -1227.32,-362.56 -522.73,0 -891.54,95.05 -1102.13,285.2 -212.72,190.1 -308.78,428.88 -290.17,718.47 17.48,271.94 134.81,497.45 351.87,674.32 215.17,181.27 685.27,428.88 1408.28,745.02 1090.76,470.9 1787.92,851.16 2096.05,1145.17 458.46,433.31 710.53,988.23 754.02,1664.73 53.86,837.87 -221.46,1554.18 -826.11,2146.67 -604.49,594.71 -1478.81,890.95 -2627.13,890.95 -790.54,0 -1484.89,-137.07 -2080.96,-411.22 -598.2,-274.11 -1031.86,-654.39 -1301.06,-1142.97 -269.2,-488.57 -416.57,-1047.89 -440.36,-1684.6zm10695.64 -1852.62l-1768.86 -154.79c162.02,-612.38 482.55,-1092.12 959.55,-1436.99 479.15,-344.89 1129.92,-519.53 1952.59,-519.53 859.09,0 1504.76,179.09 1936.85,535.02 434.2,355.93 665.72,791.45 698.69,1304.35 13.36,207.79 10.45,428.88 -11.05,661 -19.21,234.35 -104.11,846.76 -254.55,1839.39 -122.93,820.2 -173.83,1394.99 -152.65,1724.39 18.76,291.86 89.07,619.04 212.79,977.2l-1750.34 0c-86.76,-249.85 -148.38,-508.5 -182.86,-778.21 -244.06,302.9 -531.2,535.02 -863.61,696.42 -334.4,163.55 -674.2,243.16 -1021.28,243.16 -552.74,0 -1021.01,-185.7 -1404.91,-559.35 -381.79,-373.57 -592.6,-853.31 -630.41,-1441.41 -42.21,-656.6 121.19,-1180.56 490.09,-1574.06 371.06,-393.52 1062.84,-630.1 2073.08,-711.86 854.4,-72.95 1420.74,-161.4 1703.29,-265.33 58.17,-260.88 83.54,-466.45 73.45,-623.42 -12.65,-196.76 -102.71,-364.79 -265.48,-497.43 -162.94,-134.87 -396.43,-201.19 -702.79,-201.19 -321.37,0 -571.88,68.55 -749.64,203.39 -177.55,137.07 -291.59,329.4 -341.95,579.25zm1824.77 1724.39c-107.41,28.75 -251.25,57.46 -429.52,84.01 -894.68,112.75 -1475.46,276.35 -1737.91,493 -187.13,154.77 -270.06,364.79 -253.15,627.85 13.79,214.48 100.55,397.95 260.07,546.08 159.59,150.34 363.57,223.29 609.92,223.29 272.07,0 524.93,-66.34 756.04,-203.42 233.4,-134.84 402.01,-311.68 506.18,-523.93 106.2,-214.45 189.75,-548.29 252.73,-1001.49l35.64 -245.39zm3950.18 -3672.1l1681.76 0 -184.25 1333.1c563.63,-997.07 1210.65,-1496.7 1943.34,-1496.7 259.24,0 542.16,68.55 848.48,201.19l-594.08 1523.2c-166.81,-61.89 -342.18,-90.62 -526.45,-90.62 -308.49,0 -615.76,119.38 -921.47,362.56 -303.72,240.99 -533.62,563.76 -687.59,968.34 -154.09,402.35 -290.7,1043.46 -410.08,1918.95l-300.48 2157.73 -1801.77 0 952.59 -6877.75zm4120.57 6877.75l1315.62 -9495.32 1801.74 0 -687.13 4941.08 2198.69 -2323.51 2341.62 0 -2519.41 2500.4 1706.08 4377.35 -1801.74 0 -1121.28 -3179.12 -1145.4 1112.03 -289.17 2067.09 -1799.62 0zm7259.05 -2856.33c-81.86,-1273.43 201.98,-2290.4 849.64,-3046.48 647.54,-758.31 1540.03,-1138.54 2673.35,-1138.54 983.36,0 1768.39,280.75 2357.09,840.1 588.67,559.32 913.34,1311 974.17,2257.21 71.63,1114.24 -211.47,2075.94 -851.29,2887.28 -637.56,813.57 -1537.08,1218.13 -2696.1,1218.13 -627.7,0 -1190.84,-128.24 -1693.92,-389.12 -500.78,-258.65 -886.46,-625.64 -1156.97,-1100.95 -268.21,-473.1 -421.01,-983.77 -455.97,-1527.63zm5049.87 -1328.72c-28.28,-439.92 -175.14,-791.42 -442.99,-1058.95 -265.57,-265.29 -595.44,-397.93 -987.51,-397.93 -389.88,0 -726.89,123.81 -1012.87,373.6 -284.04,247.61 -496.51,607.97 -633.22,1081.1 -136.69,473.09 -192.24,908.62 -166.8,1304.37 31.69,493 187.54,884.3 465.37,1173.93 277.69,287.38 612.73,433.29 1006.93,433.29 492.76,0 894.3,-218.86 1200.51,-654.38 435.96,-616.8 627.57,-1368.46 570.58,-2255.03zm3573.96 -2692.7l1681.78 0 -184.28 1333.1c563.66,-997.07 1210.66,-1496.7 1943.37,-1496.7 259.21,0 542.13,68.55 848.46,201.19l-594.06 1523.2c-166.83,-61.89 -342.21,-90.62 -526.45,-90.62 -308.49,0 -615.76,119.38 -921.5,362.56 -303.72,240.99 -533.62,563.76 -687.56,968.34 -154.12,402.35 -290.72,1043.46 -410.1,1918.95l-300.46 2157.73 -1801.79 0 952.59 -6877.75z"></path> </clipPath> <clipPath id="id1"> <path d="M30964.46 2182.07c25782.13,-4078.43 21465.5,12167.76 21360.29,12034.07 0,0 8634.07,-20873.85 -21360.29,-12034.07z"></path> </clipPath> <clipPath id="id2"> <path d="M22512.87 16516.52c-25782.13,4078.43 -21465.49,-12167.75 -21360.28,-12034.07 0,0 -8634.08,20873.85 21360.28,12034.07z"></path> </clipPath> </defs> <g id="Layer_x0020_1"> <metadata id="CorelCorpID_0Corel-Layer"></metadata> <g id="_2188379473008"> <path class="fil0" d="M6564.65 10420.48l1795.49 -97.25c61.66,592.43 185.92,992.61 370.5,1198.21 298.13,338.26 820.95,506.26 1564.38,506.26 619.14,0 1059.53,-114.92 1321.24,-342.66 261.58,-229.9 383.07,-506.27 362.33,-829.04 -18.05,-280.77 -146.95,-519.55 -386.56,-714.09 -167.61,-141.47 -619.58,-373.6 -1353.46,-691.99 -734.02,-320.56 -1271.67,-585.82 -1613.23,-800.3 -341.58,-214.41 -618.58,-490.78 -828.98,-831.22 -210.59,-342.66 -330.41,-740.61 -359.83,-1198.25 -51.45,-800.3 186.71,-1461.36 714.06,-1989.72 527.48,-526.17 1322.52,-789.25 2385.14,-789.25 1079.74,0 1932.08,260.88 2556.9,782.64 625,523.93 995.24,1218.12 1111.09,2086.98l-1809.22 84.01c-76.25,-453.21 -257.25,-802.53 -544.83,-1043.51 -287.55,-240.96 -696.02,-362.56 -1227.32,-362.56 -522.73,0 -891.54,95.05 -1102.13,285.2 -212.72,190.1 -308.78,428.88 -290.17,718.47 17.48,271.94 134.81,497.45 351.87,674.32 215.17,181.27 685.27,428.88 1408.28,745.02 1090.76,470.9 1787.92,851.16 2096.05,1145.17 458.46,433.31 710.53,988.23 754.02,1664.73 53.86,837.87 -221.46,1554.18 -826.11,2146.67 -604.49,594.71 -1478.81,890.95 -2627.13,890.95 -790.54,0 -1484.89,-137.07 -2080.96,-411.22 -598.2,-274.11 -1031.86,-654.39 -1301.06,-1142.97 -269.2,-488.57 -416.57,-1047.89 -440.36,-1684.6zm10695.64 -1852.62l-1768.86 -154.79c162.02,-612.38 482.55,-1092.12 959.55,-1436.99 479.15,-344.89 1129.92,-519.53 1952.59,-519.53 859.09,0 1504.76,179.09 1936.85,535.02 434.2,355.93 665.72,791.45 698.69,1304.35 13.36,207.79 10.45,428.88 -11.05,661 -19.21,234.35 -104.11,846.76 -254.55,1839.39 -122.93,820.2 -173.83,1394.99 -152.65,1724.39 18.76,291.86 89.07,619.04 212.79,977.2l-1750.34 0c-86.76,-249.85 -148.38,-508.5 -182.86,-778.21 -244.06,302.9 -531.2,535.02 -863.61,696.42 -334.4,163.55 -674.2,243.16 -1021.28,243.16 -552.74,0 -1021.01,-185.7 -1404.91,-559.35 -381.79,-373.57 -592.6,-853.31 -630.41,-1441.41 -42.21,-656.6 121.19,-1180.56 490.09,-1574.06 371.06,-393.52 1062.84,-630.1 2073.08,-711.86 854.4,-72.95 1420.74,-161.4 1703.29,-265.33 58.17,-260.88 83.54,-466.45 73.45,-623.42 -12.65,-196.76 -102.71,-364.79 -265.48,-497.43 -162.94,-134.87 -396.43,-201.19 -702.79,-201.19 -321.37,0 -571.88,68.55 -749.64,203.39 -177.55,137.07 -291.59,329.4 -341.95,579.25zm1824.77 1724.39c-107.41,28.75 -251.25,57.46 -429.52,84.01 -894.68,112.75 -1475.46,276.35 -1737.91,493 -187.13,154.77 -270.06,364.79 -253.15,627.85 13.79,214.48 100.55,397.95 260.07,546.08 159.59,150.34 363.57,223.29 609.92,223.29 272.07,0 524.93,-66.34 756.04,-203.42 233.4,-134.84 402.01,-311.68 506.18,-523.93 106.2,-214.45 189.75,-548.29 252.73,-1001.49l35.64 -245.39zm3950.18 -3672.1l1681.76 0 -184.25 1333.1c563.63,-997.07 1210.65,-1496.7 1943.34,-1496.7 259.24,0 542.16,68.55 848.48,201.19l-594.08 1523.2c-166.81,-61.89 -342.18,-90.62 -526.45,-90.62 -308.49,0 -615.76,119.38 -921.47,362.56 -303.72,240.99 -533.62,563.76 -687.59,968.34 -154.09,402.35 -290.7,1043.46 -410.08,1918.95l-300.48 2157.73 -1801.77 0 952.59 -6877.75zm4120.57 6877.75l1315.62 -9495.32 1801.74 0 -687.13 4941.08 2198.69 -2323.51 2341.62 0 -2519.41 2500.4 1706.08 4377.35 -1801.74 0 -1121.28 -3179.12 -1145.4 1112.03 -289.17 2067.09 -1799.62 0zm7259.05 -2856.33c-81.86,-1273.43 201.98,-2290.4 849.64,-3046.48 647.54,-758.31 1540.03,-1138.54 2673.35,-1138.54 983.36,0 1768.39,280.75 2357.09,840.1 588.67,559.32 913.34,1311 974.17,2257.21 71.63,1114.24 -211.47,2075.94 -851.29,2887.28 -637.56,813.57 -1537.08,1218.13 -2696.1,1218.13 -627.7,0 -1190.84,-128.24 -1693.92,-389.12 -500.78,-258.65 -886.46,-625.64 -1156.97,-1100.95 -268.21,-473.1 -421.01,-983.77 -455.97,-1527.63zm5049.87 -1328.72c-28.28,-439.92 -175.14,-791.42 -442.99,-1058.95 -265.57,-265.29 -595.44,-397.93 -987.51,-397.93 -389.88,0 -726.89,123.81 -1012.87,373.6 -284.04,247.61 -496.51,607.97 -633.22,1081.1 -136.69,473.09 -192.24,908.62 -166.8,1304.37 31.69,493 187.54,884.3 465.37,1173.93 277.69,287.38 612.73,433.29 1006.93,433.29 492.76,0 894.3,-218.86 1200.51,-654.38 435.96,-616.8 627.57,-1368.46 570.58,-2255.03zm3573.96 -2692.7l1681.78 0 -184.28 1333.1c563.66,-997.07 1210.66,-1496.7 1943.37,-1496.7 259.21,0 542.13,68.55 848.46,201.19l-594.06 1523.2c-166.83,-61.89 -342.21,-90.62 -526.45,-90.62 -308.49,0 -615.76,119.38 -921.5,362.56 -303.72,240.99 -533.62,563.76 -687.56,968.34 -154.12,402.35 -290.72,1043.46 -410.1,1918.95l-300.46 2157.73 -1801.79 0 952.59 -6877.75z"></path> <g style="clip-path:url(#id0)"> <g> <path id="_1" class="fil1" d="M111870.58 81287.37c0,0 -5091.7,-14220.95 -5091.7,-14220.95 0,0 -3551.52,270.2 -3551.52,270.2 0,0 -2368.69,3604.14 -2368.69,3604.14 0,0 1907.07,7817.31 1907.07,7817.31 0,0 -2657.34,4016.58 -2657.34,4016.58 0,0 -4277.54,-12529.09 -4625.41,-12745.83 -309.71,-79.08 -8366.01,10004.61 -8366.01,10004.61 0,0 -1029.69,-4650.9 -1029.69,-4650.9 0,0 3833.29,-6108.65 3833.29,-6108.65 0,0 -1029.69,-4650.9 -1029.69,-4650.9 0,0 -3245.24,-2363.72 -3245.24,-2363.72 0,0 -9329.33,10475.07 -9329.33,10475.07 0,0 -12939.36,-6604.22 -12939.36,-6604.22 0,0 -2033.07,2218.64 -2033.07,2218.64 0,0 1199.35,4847.73 1199.35,4847.73 0,0 6371.76,4402.9 6371.76,4402.9 0,0 1186.54,5113.12 1186.54,5113.12 0,0 -11577.22,-6985.65 -11857.33,-6750.13 -369.22,225.56 1536.19,13645.79 1536.19,13645.79 0,0 -3639.79,-2541.21 -3639.79,-2541.21 0,0 -2084.99,-8771.04 -2084.99,-8771.04 0,0 -3559.22,-2354.34 -3559.22,-2354.34 0,0 -3730,1184.11 -3730,1184.11 0,0 1132.83,14579.04 1132.83,14579.04 0,0 -13010.43,4149.37 -13010.43,4149.37 0,0 953.67,3441.75 953.67,3441.75 0,0 3601.64,2403.54 3601.64,2403.54 0,0 6861.35,-1101.04 6861.35,-1101.04 0,0 4602.82,3004.58 4602.82,3004.58 0,0 -12063.92,3098.93 -12034.31,3413.52 25.34,403.05 9764.77,9273.4 9764.77,9273.4 0,0 -3746.8,604.14 -3746.8,604.14 0,0 -7071.76,-4747.93 -7071.76,-4747.93 0,0 -4561.51,779.92 -4561.51,779.92 0,0 -1706.56,2877.68 -1706.56,2877.68 0,0 10261.22,9195.47 10261.22,9195.47 0,0 -3049.27,9353.55 -3372.08,10473.68 788.83,1288.8 3817.44,4428.76 3817.44,4428.76 0,0 1973.04,-46.35 1973.04,-46.35 0,0 4206.76,-6422.66 4206.76,-6422.66 0,0 4608.2,-819.17 4608.2,-819.17 0,0 -5786.63,11315.61 -5532.13,11610.86 212.08,246.05 12788.7,-483.2 12788.7,-483.2 0,0 -2513.01,3810.36 -2513.01,3810.36 0,0 -8079.15,1276.25 -8079.15,1276.25 0,0 1009.17,2291.75 6120.71,6820.65 2202.19,-154.16 7718.2,-293.79 7718.2,-293.79 0,0 2123.41,7974.89 3204.6,10630.44 1302.09,1790.84 4072.21,3790.2 4072.21,3790.2 0,0 3226.1,-4664.54 3226.1,-4664.54 0,0 -1936.67,-8131.9 -1936.67,-8131.9 0,0 2364.42,-3515.69 2364.42,-3515.69 0,0 5275,11350.94 5495.62,11420.06 216.35,157.58 7449.11,-8639.58 7449.11,-8639.58 0,0 1390.09,5536.09 1390.09,5536.09 0,0 -4160.08,6383.41 -4160.08,6383.41 0,0 1123.06,4572.4 1123.06,4572.4 0,0 3054.5,1675.37 3054.5,1675.37 0,0 8786.46,-11291.71 8786.46,-11291.71 0,0 13584.13,7165.43 13584.13,7165.43 0,0 2003.47,-2533.23 2003.47,-2533.23 0,0 -995.8,-4424.77 -995.8,-4424.77 0,0 -6460.87,-4412.85 -6460.87,-4412.85 0,0 -1156.93,-4798.53 -1156.93,-4798.53 0,0 12196.94,6209.98 12477.05,5974.46 233.42,-196.26 -1786.7,-13095.68 -1786.7,-13095.68 0,0 4288.84,3013.96 4288.84,3013.96 0,0 1754.47,7266.62 1754.47,7266.62 0,0 3987.66,2757.97 3987.66,2757.97 0,0 3271.68,-968.51 3271.68,-968.51 0,0 -1205.13,-14009.02 -1205.13,-14009.02 0,0 13426.33,-4414.18 13426.33,-4414.18 0,0 -906.99,-3481 -906.99,-3481 0,0 -4551.87,-3132.29 -4551.87,-3132.29 0,0 -7451.17,1257.48 -7451.17,1257.48 0,0 -3902.82,-2659.54 -3902.82,-2659.54 0,0 12084.98,-2607.42 12186.89,-2862.85 97.64,-166.96 -10193.19,-9677.02 -10193.19,-9677.02 0,0 3840.16,-682.64 3840.16,-682.64 0,0 7631.71,5210.71 7631.71,5210.71 0,0 4603.93,-730.71 4603.93,-730.71 0,0 1880.77,-3703.13 1880.77,-3703.13 0,0 -11954.43,-8450.81 -11954.43,-8450.81 0,0 6215.89,-13713.45 6215.89,-13713.45 0,0 -2591.92,-1979.44 -2591.92,-1979.44 0,0 -4875.5,789.3 -4875.5,789.3 0,0 -3867.16,5882.52 -3867.16,5882.52 0,0 -5240.45,926.4 -5240.45,926.4 0,0 5990.17,-10892.65 5782.36,-11227.16 -169.66,-196.83 -12440.84,699.95 -12440.84,699.95 0,0 2474.87,-3948.03 2474.87,-3948.03 0,0 7137.18,-1248.09 7137.18,-1248.09 0,0 2708.3,-4144.3 2708.3,-4144.3 0,0 -945.14,-3618.67 -945.14,-3618.67 0,0 -14477.63,1139.41 -14477.63,1139.41z"></path> </g> </g> <path class="fil2" d="M6564.65 10420.48l1795.49 -97.25c61.66,592.43 185.92,992.61 370.5,1198.21 298.13,338.26 820.95,506.26 1564.38,506.26 619.14,0 1059.53,-114.92 1321.24,-342.66 261.58,-229.9 383.07,-506.27 362.33,-829.04 -18.05,-280.77 -146.95,-519.55 -386.56,-714.09 -167.61,-141.47 -619.58,-373.6 -1353.46,-691.99 -734.02,-320.56 -1271.67,-585.82 -1613.23,-800.3 -341.58,-214.41 -618.58,-490.78 -828.98,-831.22 -210.59,-342.66 -330.41,-740.61 -359.83,-1198.25 -51.45,-800.3 186.71,-1461.36 714.06,-1989.72 527.48,-526.17 1322.52,-789.25 2385.14,-789.25 1079.74,0 1932.08,260.88 2556.9,782.64 625,523.93 995.24,1218.12 1111.09,2086.98l-1809.22 84.01c-76.25,-453.21 -257.25,-802.53 -544.83,-1043.51 -287.55,-240.96 -696.02,-362.56 -1227.32,-362.56 -522.73,0 -891.54,95.05 -1102.13,285.2 -212.72,190.1 -308.78,428.88 -290.17,718.47 17.48,271.94 134.81,497.45 351.87,674.32 215.17,181.27 685.27,428.88 1408.28,745.02 1090.76,470.9 1787.92,851.16 2096.05,1145.17 458.46,433.31 710.53,988.23 754.02,1664.73 53.86,837.87 -221.46,1554.18 -826.11,2146.67 -604.49,594.71 -1478.81,890.95 -2627.13,890.95 -790.54,0 -1484.89,-137.07 -2080.96,-411.22 -598.2,-274.11 -1031.86,-654.39 -1301.06,-1142.97 -269.2,-488.57 -416.57,-1047.89 -440.36,-1684.6zm10695.64 -1852.62l-1768.86 -154.79c162.02,-612.38 482.55,-1092.12 959.55,-1436.99 479.15,-344.89 1129.92,-519.53 1952.59,-519.53 859.09,0 1504.76,179.09 1936.85,535.02 434.2,355.93 665.72,791.45 698.69,1304.35 13.36,207.79 10.45,428.88 -11.05,661 -19.21,234.35 -104.11,846.76 -254.55,1839.39 -122.93,820.2 -173.83,1394.99 -152.65,1724.39 18.76,291.86 89.07,619.04 212.79,977.2l-1750.34 0c-86.76,-249.85 -148.38,-508.5 -182.86,-778.21 -244.06,302.9 -531.2,535.02 -863.61,696.42 -334.4,163.55 -674.2,243.16 -1021.28,243.16 -552.74,0 -1021.01,-185.7 -1404.91,-559.35 -381.79,-373.57 -592.6,-853.31 -630.41,-1441.41 -42.21,-656.6 121.19,-1180.56 490.09,-1574.06 371.06,-393.52 1062.84,-630.1 2073.08,-711.86 854.4,-72.95 1420.74,-161.4 1703.29,-265.33 58.17,-260.88 83.54,-466.45 73.45,-623.42 -12.65,-196.76 -102.71,-364.79 -265.48,-497.43 -162.94,-134.87 -396.43,-201.19 -702.79,-201.19 -321.37,0 -571.88,68.55 -749.64,203.39 -177.55,137.07 -291.59,329.4 -341.95,579.25zm1824.77 1724.39c-107.41,28.75 -251.25,57.46 -429.52,84.01 -894.68,112.75 -1475.46,276.35 -1737.91,493 -187.13,154.77 -270.06,364.79 -253.15,627.85 13.79,214.48 100.55,397.95 260.07,546.08 159.59,150.34 363.57,223.29 609.92,223.29 272.07,0 524.93,-66.34 756.04,-203.42 233.4,-134.84 402.01,-311.68 506.18,-523.93 106.2,-214.45 189.75,-548.29 252.73,-1001.49l35.64 -245.39zm3950.18 -3672.1l1681.76 0 -184.25 1333.1c563.63,-997.07 1210.65,-1496.7 1943.34,-1496.7 259.24,0 542.16,68.55 848.48,201.19l-594.08 1523.2c-166.81,-61.89 -342.18,-90.62 -526.45,-90.62 -308.49,0 -615.76,119.38 -921.47,362.56 -303.72,240.99 -533.62,563.76 -687.59,968.34 -154.09,402.35 -290.7,1043.46 -410.08,1918.95l-300.48 2157.73 -1801.77 0 952.59 -6877.75zm4120.57 6877.75l1315.62 -9495.32 1801.74 0 -687.13 4941.08 2198.69 -2323.51 2341.62 0 -2519.41 2500.4 1706.08 4377.35 -1801.74 0 -1121.28 -3179.12 -1145.4 1112.03 -289.17 2067.09 -1799.62 0zm7259.05 -2856.33c-81.86,-1273.43 201.98,-2290.4 849.64,-3046.48 647.54,-758.31 1540.03,-1138.54 2673.35,-1138.54 983.36,0 1768.39,280.75 2357.09,840.1 588.67,559.32 913.34,1311 974.17,2257.21 71.63,1114.24 -211.47,2075.94 -851.29,2887.28 -637.56,813.57 -1537.08,1218.13 -2696.1,1218.13 -627.7,0 -1190.84,-128.24 -1693.92,-389.12 -500.78,-258.65 -886.46,-625.64 -1156.97,-1100.95 -268.21,-473.1 -421.01,-983.77 -455.97,-1527.63zm5049.87 -1328.72c-28.28,-439.92 -175.14,-791.42 -442.99,-1058.95 -265.57,-265.29 -595.44,-397.93 -987.51,-397.93 -389.88,0 -726.89,123.81 -1012.87,373.6 -284.04,247.61 -496.51,607.97 -633.22,1081.1 -136.69,473.09 -192.24,908.62 -166.8,1304.37 31.69,493 187.54,884.3 465.37,1173.93 277.69,287.38 612.73,433.29 1006.93,433.29 492.76,0 894.3,-218.86 1200.51,-654.38 435.96,-616.8 627.57,-1368.46 570.58,-2255.03zm3573.96 -2692.7l1681.78 0 -184.28 1333.1c563.66,-997.07 1210.66,-1496.7 1943.37,-1496.7 259.21,0 542.13,68.55 848.46,201.19l-594.06 1523.2c-166.83,-61.89 -342.21,-90.62 -526.45,-90.62 -308.49,0 -615.76,119.38 -921.5,362.56 -303.72,240.99 -533.62,563.76 -687.56,968.34 -154.12,402.35 -290.72,1043.46 -410.1,1918.95l-300.46 2157.73 -1801.79 0 952.59 -6877.75z"></path> <path class="fil3" d="M30964.46 2182.07c25782.13,-4078.43 21465.5,12167.76 21360.29,12034.07 0,0 8634.07,-20873.85 -21360.29,-12034.07z"></path> <g style="clip-path:url(#id1)"> <g> <path id="_1_0" class="fil1" d="M60736.95 57214.96c0,0 -3450.85,-9638.09 -3450.85,-9638.09 0,0 -2407,183.12 -2407,183.12 0,0 -1605.35,2442.67 -1605.35,2442.67 0,0 1292.49,5298.1 1292.49,5298.1 0,0 -1800.99,2722.19 -1800.99,2722.19 0,0 -2899.05,-8491.45 -3134.81,-8638.35 -209.91,-53.59 -5669.98,6780.52 -5669.98,6780.52 0,0 -697.86,-3152.1 -697.86,-3152.1 0,0 2597.97,-4140.07 2597.97,-4140.07 0,0 -697.86,-3152.1 -697.86,-3152.1 0,0 -2199.43,-1601.98 -2199.43,-1601.98 0,0 -6322.85,7099.37 -6322.85,7099.37 0,0 -8769.51,-4475.94 -8769.51,-4475.94 0,0 -1377.89,1503.65 -1377.89,1503.65 0,0 812.84,3285.5 812.84,3285.5 0,0 4318.4,2984.02 4318.4,2984.02 0,0 804.16,3465.36 804.16,3465.36 0,0 -7846.34,-4734.44 -8036.18,-4574.83 -250.23,152.87 1041.14,9248.29 1041.14,9248.29 0,0 -2466.83,-1722.28 -2466.83,-1722.28 0,0 -1413.08,-5944.48 -1413.08,-5944.48 0,0 -2412.22,-1595.62 -2412.22,-1595.62 0,0 -2527.96,802.52 -2527.96,802.52 0,0 767.76,9880.78 767.76,9880.78 0,0 -8817.68,2812.19 -8817.68,2812.19 0,0 646.34,2332.61 646.34,2332.61 0,0 2440.97,1628.97 2440.97,1628.97 0,0 4650.2,-746.21 4650.2,-746.21 0,0 3119.52,2036.31 3119.52,2036.31 0,0 -8176.19,2100.27 -8156.12,2313.48 17.17,273.17 6617.96,6284.95 6617.96,6284.95 0,0 -2539.35,409.45 -2539.35,409.45 0,0 -4792.81,-3217.86 -4792.81,-3217.86 0,0 -3091.52,528.58 -3091.52,528.58 0,0 -1156.6,1950.32 -1156.6,1950.32 0,0 6954.44,6232.13 6954.44,6232.13 0,0 -2066.62,6339.27 -2285.39,7098.42 534.61,873.48 2587.22,3001.55 2587.22,3001.55 0,0 1337.2,-31.42 1337.2,-31.42 0,0 2851.09,-4352.89 2851.09,-4352.89 0,0 3123.16,-555.18 3123.16,-555.18 0,0 -3921.82,7669.04 -3749.34,7869.14 143.73,166.75 8667.4,-327.49 8667.4,-327.49 0,0 -1703.16,2582.44 -1703.16,2582.44 0,0 -5475.56,864.96 -5475.56,864.96 0,0 683.95,1553.21 4148.24,4622.62 1492.51,-104.48 5230.93,-199.12 5230.93,-199.12 0,0 1439.12,5404.9 2171.89,7204.67 882.47,1213.73 2759.89,2568.77 2759.89,2568.77 0,0 2186.46,-3161.34 2186.46,-3161.34 0,0 -1312.56,-5511.31 -1312.56,-5511.31 0,0 1602.46,-2382.72 1602.46,-2382.72 0,0 3575.08,7692.98 3724.6,7739.82 146.63,106.8 5048.55,-5855.38 5048.55,-5855.38 0,0 942.12,3752.02 942.12,3752.02 0,0 -2819.45,4326.29 -2819.45,4326.29 0,0 761.14,3098.89 761.14,3098.89 0,0 2070.15,1135.47 2070.15,1135.47 0,0 5954.93,-7652.83 5954.93,-7652.83 0,0 9206.5,4856.29 9206.5,4856.29 0,0 1357.83,-1716.87 1357.83,-1716.87 0,0 -674.9,-2998.84 -674.9,-2998.84 0,0 -4378.78,-2990.76 -4378.78,-2990.76 0,0 -784.1,-3252.16 -784.1,-3252.16 0,0 8266.35,4208.75 8456.19,4049.13 158.2,-133.01 -1210.91,-8875.46 -1210.91,-8875.46 0,0 2906.71,2042.68 2906.71,2042.68 0,0 1189.08,4924.88 1189.08,4924.88 0,0 2702.59,1869.18 2702.59,1869.18 0,0 2217.34,-656.39 2217.34,-656.39 0,0 -816.76,-9494.47 -816.76,-9494.47 0,0 9099.55,-2991.66 9099.55,-2991.66 0,0 -614.7,-2359.21 -614.7,-2359.21 0,0 -3084.98,-2122.87 -3084.98,-2122.87 0,0 -5049.96,852.24 -5049.96,852.24 0,0 -2645.09,-1802.48 -2645.09,-1802.48 0,0 8190.47,-1767.15 8259.53,-1940.26 66.18,-113.16 -6908.32,-6558.5 -6908.32,-6558.5 0,0 2602.63,-462.65 2602.63,-462.65 0,0 5172.31,3531.51 5172.31,3531.51 0,0 3120.26,-495.23 3120.26,-495.23 0,0 1274.67,-2509.76 1274.67,-2509.76 0,0 -8101.98,-5727.44 -8101.98,-5727.44 0,0 4212.75,-9294.15 4212.75,-9294.15 0,0 -1756.65,-1341.54 -1756.65,-1341.54 0,0 -3304.32,534.94 -3304.32,534.94 0,0 -2620.92,3986.81 -2620.92,3986.81 0,0 -3551.66,627.85 -3551.66,627.85 0,0 4059.77,-7382.37 3918.93,-7609.08 -114.99,-133.4 -8431.64,474.39 -8431.64,474.39 0,0 1677.31,-2675.74 1677.31,-2675.74 0,0 4837.15,-845.88 4837.15,-845.88 0,0 1835.52,-2808.75 1835.52,-2808.75 0,0 -640.55,-2452.52 -640.55,-2452.52 0,0 -9812.06,772.22 -9812.06,772.22z"></path> </g> </g> <path class="fil2" d="M30964.46 2182.07c25782.13,-4078.43 21465.5,12167.76 21360.29,12034.07 0,0 8634.07,-20873.85 -21360.29,-12034.07z"></path> <path class="fil3" d="M22512.87 16516.52c-25782.13,4078.43 -21465.49,-12167.75 -21360.28,-12034.07 0,0 -8634.08,20873.85 21360.28,12034.07z"></path> <g style="clip-path:url(#id2)"> <g> <path id="_1_1" class="fil1" d="M75974.52 59138.26c0,0 -3450.85,-9638.09 -3450.85,-9638.09 0,0 -2407,183.12 -2407,183.12 0,0 -1605.35,2442.67 -1605.35,2442.67 0,0 1292.49,5298.1 1292.49,5298.1 0,0 -1800.98,2722.19 -1800.98,2722.19 0,0 -2899.06,-8491.45 -3134.82,-8638.35 -209.91,-53.59 -5669.97,6780.52 -5669.97,6780.52 0,0 -697.86,-3152.1 -697.86,-3152.1 0,0 2597.96,-4140.07 2597.96,-4140.07 0,0 -697.86,-3152.1 -697.86,-3152.1 0,0 -2199.42,-1601.98 -2199.42,-1601.98 0,0 -6322.85,7099.37 -6322.85,7099.37 0,0 -8769.51,-4475.94 -8769.51,-4475.94 0,0 -1377.9,1503.65 -1377.9,1503.65 0,0 812.85,3285.5 812.85,3285.5 0,0 4318.39,2984.02 4318.39,2984.02 0,0 804.17,3465.36 804.17,3465.36 0,0 -7846.34,-4734.44 -8036.18,-4574.83 -250.23,152.88 1041.13,9248.29 1041.13,9248.29 0,0 -2466.82,-1722.28 -2466.82,-1722.28 0,0 -1413.08,-5944.48 -1413.08,-5944.48 0,0 -2412.23,-1595.62 -2412.23,-1595.62 0,0 -2527.96,802.52 -2527.96,802.52 0,0 767.76,9880.78 767.76,9880.78 0,0 -8817.68,2812.19 -8817.68,2812.19 0,0 646.34,2332.61 646.34,2332.61 0,0 2440.98,1628.97 2440.98,1628.97 0,0 4650.2,-746.21 4650.2,-746.21 0,0 3119.51,2036.32 3119.51,2036.32 0,0 -8176.19,2100.26 -8156.12,2313.47 17.17,273.17 6617.97,6284.95 6617.97,6284.95 0,0 -2539.35,409.45 -2539.35,409.45 0,0 -4792.82,-3217.86 -4792.82,-3217.86 0,0 -3091.51,528.58 -3091.51,528.58 0,0 -1156.6,1950.32 -1156.6,1950.32 0,0 6954.43,6232.13 6954.43,6232.13 0,0 -2066.61,6339.27 -2285.39,7098.42 534.62,873.48 2587.23,3001.55 2587.23,3001.55 0,0 1337.2,-31.42 1337.2,-31.42 0,0 2851.09,-4352.89 2851.09,-4352.89 0,0 3123.15,-555.18 3123.15,-555.18 0,0 -3921.82,7669.04 -3749.34,7869.14 143.74,166.75 8667.41,-327.49 8667.41,-327.49 0,0 -1703.17,2582.44 -1703.17,2582.44 0,0 -5475.56,864.96 -5475.56,864.96 0,0 683.96,1553.21 4148.25,4622.62 1492.51,-104.48 5230.93,-199.12 5230.93,-199.12 0,0 1439.11,5404.9 2171.88,7204.67 882.48,1213.73 2759.9,2568.77 2759.9,2568.77 0,0 2186.45,-3161.34 2186.45,-3161.34 0,0 -1312.56,-5511.31 -1312.56,-5511.31 0,0 1602.46,-2382.72 1602.46,-2382.72 0,0 3575.08,7692.98 3724.6,7739.82 146.63,106.8 5048.56,-5855.38 5048.56,-5855.38 0,0 942.11,3752.02 942.11,3752.02 0,0 -2819.45,4326.29 -2819.45,4326.29 0,0 761.14,3098.89 761.14,3098.89 0,0 2070.16,1135.47 2070.16,1135.47 0,0 5954.93,-7652.83 5954.93,-7652.83 0,0 9206.5,4856.29 9206.5,4856.29 0,0 1357.83,-1716.87 1357.83,-1716.87 0,0 -674.9,-2998.84 -674.9,-2998.84 0,0 -4378.78,-2990.76 -4378.78,-2990.76 0,0 -784.1,-3252.16 -784.1,-3252.16 0,0 8266.34,4208.75 8456.19,4049.13 158.2,-133.01 -1210.92,-8875.46 -1210.92,-8875.46 0,0 2906.71,2042.68 2906.71,2042.68 0,0 1189.08,4924.88 1189.08,4924.88 0,0 2702.59,1869.18 2702.59,1869.18 0,0 2217.35,-656.39 2217.35,-656.39 0,0 -816.77,-9494.47 -816.77,-9494.47 0,0 9099.55,-2991.66 9099.55,-2991.66 0,0 -614.7,-2359.21 -614.7,-2359.21 0,0 -3084.98,-2122.87 -3084.98,-2122.87 0,0 -5049.95,852.24 -5049.95,852.24 0,0 -2645.1,-1802.48 -2645.1,-1802.48 0,0 8190.47,-1767.15 8259.54,-1940.26 66.17,-113.16 -6908.33,-6558.5 -6908.33,-6558.5 0,0 2602.63,-462.65 2602.63,-462.65 0,0 5172.31,3531.51 5172.31,3531.51 0,0 3120.26,-495.23 3120.26,-495.23 0,0 1274.67,-2509.76 1274.67,-2509.76 0,0 -8101.98,-5727.44 -8101.98,-5727.44 0,0 4212.75,-9294.15 4212.75,-9294.15 0,0 -1756.65,-1341.54 -1756.65,-1341.54 0,0 -3304.31,534.94 -3304.31,534.94 0,0 -2620.93,3986.81 -2620.93,3986.81 0,0 -3551.65,627.85 -3551.65,627.85 0,0 4059.77,-7382.37 3918.93,-7609.08 -114.99,-133.4 -8431.65,474.39 -8431.65,474.39 0,0 1677.32,-2675.74 1677.32,-2675.74 0,0 4837.15,-845.88 4837.15,-845.88 0,0 1835.51,-2808.75 1835.51,-2808.75 0,0 -640.55,-2452.52 -640.55,-2452.52 0,0 -9812.06,772.22 -9812.06,772.22z"></path> </g> </g> <path class="fil2" d="M22512.87 16516.52c-25782.13,4078.43 -21465.49,-12167.75 -21360.28,-12034.07 0,0 -8634.08,20873.85 21360.28,12034.07z"></path> <path class="fil0" d="M55779.51 1356.59c24.62,383.09 -85.74,705.73 -331.08,967.94 -245.36,262.21 -559.57,393.31 -942.65,393.31 -379.37,0 -710.49,-132.03 -993.4,-396.11 -282.89,-264.06 -436.55,-585.77 -460.93,-965.14 -24.39,-379.36 87.08,-699.2 334.42,-959.56 247.33,-260.34 560.67,-390.51 940.04,-390.51 379.36,0 710.37,130.17 993.03,390.51 282.66,260.36 436.18,580.2 460.57,959.56zm-267.79 0c-19.61,-304.97 -143.15,-563.46 -370.62,-775.45 -227.49,-212 -493.72,-317.99 -798.7,-317.99 -304.98,0 -557.58,105.99 -757.81,317.99 -200.23,211.99 -290.54,470.48 -270.93,775.45 19.6,304.98 144.14,564.4 373.6,778.26 229.47,213.86 496.68,320.78 801.66,320.78 304.98,0 556.59,-106.92 754.84,-320.78 198.24,-213.86 287.56,-473.28 267.96,-778.26zm-484.6 619.26l-256.63 0c-37.77,-66.95 -59.29,-141.33 -64.55,-223.16 -7.17,-111.57 -27.52,-182.24 -61.05,-211.99 -33.52,-29.75 -106.08,-44.63 -217.65,-44.63l-234.32 0 30.84 479.78 -273.36 0 -79.26 -1232.92 574.63 0c316.14,0 482.21,124.58 498.23,373.78 6.93,107.85 -35.81,195.26 -128.2,262.21 77.49,48.35 126.72,148.76 147.68,301.25l9.88 66.94 14.39 50.22 2.51 39.04 36.86 139.48zm-356.48 -859.14c-5.98,-92.98 -88.93,-139.48 -248.86,-139.48l-262.21 0 18.65 290.1 239.89 0c174.8,0 258.98,-50.2 252.53,-150.62z"></path> </g> </g> </svg> 